<svg width="150" height="60" viewBox="0 0 150 60" fill="none" xmlns="http://www.w3.org/2000/svg">
<rect width="150" height="60" fill="white"/>
<path d="M15.1794 40.8401C15.8394 40.8401 16.4361 40.9934 16.9694 41.3001C17.5094 41.6068 17.9327 42.0368 18.2394 42.5901C18.5527 43.1368 18.7094 43.7568 18.7094 44.4501C18.7094 45.1434 18.5527 45.7668 18.2394 46.3201C17.9327 46.8734 17.5094 47.3034 16.9694 47.6101C16.4361 47.9168 15.8394 48.0701 15.1794 48.0701C14.5194 48.0701 13.9194 47.9168 13.3794 47.6101C12.8461 47.3034 12.4227 46.8734 12.1094 46.3201C11.8027 45.7668 11.6494 45.1434 11.6494 44.4501C11.6494 43.7568 11.8027 43.1368 12.1094 42.5901C12.4227 42.0368 12.8461 41.6068 13.3794 41.3001C13.9194 40.9934 14.5194 40.8401 15.1794 40.8401ZM15.1794 42.1401C14.7661 42.1401 14.4027 42.2334 14.0894 42.4201C13.7761 42.6068 13.5294 42.8768 13.3494 43.2301C13.1761 43.5768 13.0894 43.9834 13.0894 44.4501C13.0894 44.9168 13.1761 45.3268 13.3494 45.6801C13.5294 46.0268 13.7761 46.2934 14.0894 46.4801C14.4027 46.6668 14.7661 46.7601 15.1794 46.7601C15.5927 46.7601 15.9561 46.6668 16.2694 46.4801C16.5827 46.2934 16.8261 46.0268 16.9994 45.6801C17.1794 45.3268 17.2694 44.9168 17.2694 44.4501C17.2694 43.9834 17.1794 43.5768 16.9994 43.2301C16.8261 42.8768 16.5827 42.6068 16.2694 42.4201C15.9561 42.2334 15.5927 42.1401 15.1794 42.1401Z" fill="#1E2538"/>
<path d="M25.3798 42.3901C25.8465 42.3901 26.2665 42.5034 26.6398 42.7301C27.0131 42.9568 27.3031 43.2868 27.5098 43.7201C27.7231 44.1468 27.8298 44.6501 27.8298 45.2301C27.8298 45.8101 27.7231 46.3168 27.5098 46.7501C27.3031 47.1768 27.0131 47.5034 26.6398 47.7301C26.2665 47.9568 25.8465 48.0701 25.3798 48.0701C24.9131 48.0701 24.5131 47.9601 24.1798 47.7401C23.8531 47.5134 23.6198 47.2134 23.4798 46.8401V50.6401H22.0698V42.4601H23.4798V43.6101C23.6198 43.2368 23.8531 42.9401 24.1798 42.7201C24.5131 42.5001 24.9131 42.3901 25.3798 42.3901ZM24.9398 43.6201C24.5131 43.6201 24.1598 43.7668 23.8798 44.0601C23.6065 44.3468 23.4698 44.7368 23.4698 45.2301C23.4698 45.7168 23.6065 46.1068 23.8798 46.4001C24.1598 46.6868 24.5131 46.8301 24.9398 46.8301C25.3798 46.8301 25.7331 46.6901 25.9998 46.4101C26.2665 46.1234 26.3998 45.7301 26.3998 45.2301C26.3998 44.7301 26.2665 44.3368 25.9998 44.0501C25.7331 43.7634 25.3798 43.6201 24.9398 43.6201Z" fill="#1E2538"/>
<path d="M36.3376 45.0201C36.3376 45.1601 36.321 45.3201 36.2876 45.5001H32.2276C32.2476 45.9934 32.381 46.3568 32.6276 46.5901C32.8743 46.8234 33.181 46.9401 33.5476 46.9401C33.8743 46.9401 34.1443 46.8601 34.3576 46.7001C34.5776 46.5401 34.7176 46.3234 34.7776 46.0501H36.2676C36.1943 46.4368 36.0376 46.7834 35.7976 47.0901C35.5576 47.3968 35.2476 47.6368 34.8676 47.8101C34.4943 47.9834 34.0776 48.0701 33.6176 48.0701C33.0776 48.0701 32.5976 47.9568 32.1776 47.7301C31.7576 47.4968 31.431 47.1668 31.1976 46.7401C30.9643 46.3134 30.8476 45.8101 30.8476 45.2301C30.8476 44.6501 30.9643 44.1468 31.1976 43.7201C31.431 43.2868 31.7576 42.9568 32.1776 42.7301C32.5976 42.5034 33.0776 42.3901 33.6176 42.3901C34.1643 42.3901 34.6409 42.5034 35.0476 42.7301C35.461 42.9568 35.7776 43.2701 35.9976 43.6701C36.2243 44.0634 36.3376 44.5134 36.3376 45.0201ZM34.9176 44.8801C34.9376 44.4268 34.8176 44.0834 34.5576 43.8501C34.3043 43.6168 33.991 43.5001 33.6176 43.5001C33.2376 43.5001 32.9176 43.6168 32.6576 43.8501C32.3976 44.0834 32.2543 44.4268 32.2276 44.8801H34.9176Z" fill="#1E2538"/>
<path d="M41.0486 43.5201C41.2552 43.1668 41.5286 42.8901 41.8686 42.6901C42.2086 42.4834 42.5886 42.3801 43.0086 42.3801V43.8901H42.5986C41.5652 43.8901 41.0486 44.3701 41.0486 45.3301V48.0001H39.6386V42.4601H41.0486V43.5201Z" fill="#1E2538"/>
<path d="M48.2589 42.3901C48.7256 42.3901 49.1256 42.5001 49.4589 42.7201C49.7923 42.9401 50.0289 43.2368 50.1689 43.6101V42.4601H51.5689V48.0001H50.1689V46.8401C50.0289 47.2134 49.7923 47.5134 49.4589 47.7401C49.1256 47.9601 48.7256 48.0701 48.2589 48.0701C47.7923 48.0701 47.3723 47.9568 46.9989 47.7301C46.6256 47.5034 46.3323 47.1768 46.1189 46.7501C45.9123 46.3168 45.8089 45.8101 45.8089 45.2301C45.8089 44.6501 45.9123 44.1468 46.1189 43.7201C46.3323 43.2868 46.6256 42.9568 46.9989 42.7301C47.3723 42.5034 47.7923 42.3901 48.2589 42.3901ZM48.6989 43.6201C48.2589 43.6201 47.9056 43.7634 47.6389 44.0501C47.3723 44.3368 47.2389 44.7301 47.2389 45.2301C47.2389 45.7301 47.3723 46.1234 47.6389 46.4101C47.9056 46.6901 48.2589 46.8301 48.6989 46.8301C49.1256 46.8301 49.4756 46.6868 49.7489 46.4001C50.0289 46.1068 50.1689 45.7168 50.1689 45.2301C50.1689 44.7368 50.0289 44.3468 49.7489 44.0601C49.4756 43.7668 49.1256 43.6201 48.6989 43.6201Z" fill="#1E2538"/>
<path d="M58.1068 46.7901V48.0001H57.3668C56.7468 48.0001 56.2701 47.8501 55.9368 47.5501C55.6101 47.2501 55.4468 46.7501 55.4468 46.0501V43.6501H54.6768V42.4601H55.4468V41.0901H56.8568V42.4601H58.0968V43.6501H56.8568V46.0701C56.8568 46.3368 56.9101 46.5234 57.0168 46.6301C57.1234 46.7368 57.3034 46.7901 57.5568 46.7901H58.1068Z" fill="#1E2538"/>
<path d="M61.2614 40.8701C61.2614 40.6434 61.3414 40.4601 61.5014 40.3201C61.6614 40.1734 61.8714 40.1001 62.1314 40.1001C62.3914 40.1001 62.6014 40.1734 62.7614 40.3201C62.9214 40.4601 63.0014 40.6434 63.0014 40.8701C63.0014 41.0901 62.9214 41.2734 62.7614 41.4201C62.6014 41.5601 62.3914 41.6301 62.1314 41.6301C61.8714 41.6301 61.6614 41.5601 61.5014 41.4201C61.3414 41.2734 61.2614 41.0901 61.2614 40.8701ZM62.8314 42.4601V48.0001H61.4214V42.4601H62.8314Z" fill="#1E2538"/>
<path d="M69.7069 42.3801C70.3469 42.3801 70.8569 42.5901 71.2369 43.0101C71.6169 43.4301 71.8069 44.0201 71.8069 44.7801V48.0001H70.4069V44.9401C70.4069 44.5001 70.2936 44.1601 70.0669 43.9201C69.8402 43.6734 69.5302 43.5501 69.1369 43.5501C68.7369 43.5501 68.4169 43.6801 68.1769 43.9401C67.9369 44.2001 67.8169 44.5734 67.8169 45.0601V48.0001H66.4069V42.4601H67.8169V43.5701C67.9636 43.1968 68.2036 42.9068 68.5369 42.7001C68.8769 42.4868 69.2669 42.3801 69.7069 42.3801Z" fill="#1E2538"/>
<path d="M77.5175 42.3901C77.9842 42.3901 78.3842 42.5001 78.7175 42.7201C79.0509 42.9401 79.2875 43.2368 79.4275 43.6101V42.4601H80.8275V48.0201C80.8275 48.5334 80.7242 48.9934 80.5175 49.4001C80.3175 49.8134 80.0142 50.1368 79.6075 50.3701C79.2075 50.6034 78.7209 50.7201 78.1475 50.7201C77.3475 50.7201 76.7009 50.5301 76.2075 50.1501C75.7142 49.7701 75.4142 49.2534 75.3075 48.6001H76.6975C76.7775 48.8801 76.9309 49.0968 77.1575 49.2501C77.3909 49.4101 77.6875 49.4901 78.0475 49.4901C78.4609 49.4901 78.7942 49.3668 79.0475 49.1201C79.3009 48.8801 79.4275 48.5134 79.4275 48.0201V46.8401C79.2875 47.2134 79.0509 47.5134 78.7175 47.7401C78.3842 47.9601 77.9842 48.0701 77.5175 48.0701C77.0509 48.0701 76.6309 47.9568 76.2575 47.7301C75.8842 47.5034 75.5909 47.1768 75.3775 46.7501C75.1709 46.3168 75.0675 45.8101 75.0675 45.2301C75.0675 44.6501 75.1709 44.1468 75.3775 43.7201C75.5909 43.2868 75.8842 42.9568 76.2575 42.7301C76.6309 42.5034 77.0509 42.3901 77.5175 42.3901ZM77.9575 43.6201C77.5175 43.6201 77.1642 43.7634 76.8975 44.0501C76.6309 44.3368 76.4975 44.7301 76.4975 45.2301C76.4975 45.7301 76.6309 46.1234 76.8975 46.4101C77.1642 46.6901 77.5175 46.8301 77.9575 46.8301C78.3842 46.8301 78.7342 46.6868 79.0075 46.4001C79.2875 46.1068 79.4275 45.7168 79.4275 45.2301C79.4275 44.7368 79.2875 44.3468 79.0075 44.0601C78.7342 43.7668 78.3842 43.6201 77.9575 43.6201Z" fill="#1E2538"/>
<path d="M93.7331 46.0701C93.7331 46.4301 93.6431 46.7634 93.4631 47.0701C93.2831 47.3701 93.0164 47.6134 92.6631 47.8001C92.3098 47.9801 91.8798 48.0701 91.3731 48.0701C90.8731 48.0701 90.4264 47.9868 90.0331 47.8201C89.6398 47.6468 89.3231 47.4001 89.0831 47.0801C88.8498 46.7601 88.7164 46.3868 88.6831 45.9601H90.1831C90.2164 46.2468 90.3298 46.4868 90.5231 46.6801C90.7231 46.8668 90.9864 46.9601 91.3131 46.9601C91.6064 46.9601 91.8298 46.8834 91.9831 46.7301C92.1431 46.5701 92.2231 46.3668 92.2231 46.1201C92.2231 45.9001 92.1598 45.7201 92.0331 45.5801C91.9064 45.4334 91.7464 45.3168 91.5531 45.2301C91.3597 45.1434 91.0931 45.0434 90.7531 44.9301C90.3131 44.7834 89.9531 44.6401 89.6731 44.5001C89.3931 44.3534 89.1531 44.1434 88.9531 43.8701C88.7598 43.5968 88.6631 43.2401 88.6631 42.8001C88.6631 42.1934 88.8798 41.7168 89.3131 41.3701C89.7531 41.0168 90.3331 40.8401 91.0531 40.8401C91.7998 40.8401 92.3931 41.0201 92.8331 41.3801C93.2797 41.7401 93.5331 42.2201 93.5931 42.8201H92.0731C92.0331 42.5668 91.9264 42.3601 91.7531 42.2001C91.5798 42.0334 91.3431 41.9501 91.0431 41.9501C90.7831 41.9501 90.5731 42.0201 90.4131 42.1601C90.2531 42.2934 90.1731 42.4901 90.1731 42.7501C90.1731 42.9568 90.2331 43.1301 90.3531 43.2701C90.4798 43.4034 90.6364 43.5134 90.8231 43.6001C91.0164 43.6868 91.2764 43.7834 91.6031 43.8901C92.0564 44.0501 92.4231 44.2001 92.7031 44.3401C92.9898 44.4801 93.2331 44.6901 93.4331 44.9701C93.6331 45.2501 93.7331 45.6168 93.7331 46.0701Z" fill="#1E2538"/>
<path d="M98.0218 42.4601L99.5318 46.2201L100.932 42.4601H102.482L99.0918 50.6401H97.5318L98.7818 47.8401L96.4518 42.4601H98.0218Z" fill="#1E2538"/>
<path d="M107.356 42.3901C108.029 42.3901 108.569 42.5601 108.976 42.9001C109.383 43.2401 109.636 43.6934 109.736 44.2601H108.416C108.363 43.9934 108.243 43.7801 108.056 43.6201C107.869 43.4601 107.626 43.3801 107.326 43.3801C107.086 43.3801 106.899 43.4368 106.766 43.5501C106.633 43.6634 106.566 43.8168 106.566 44.0101C106.566 44.1634 106.619 44.2868 106.726 44.3801C106.833 44.4734 106.966 44.5468 107.126 44.6001C107.286 44.6534 107.516 44.7168 107.816 44.7901C108.236 44.8834 108.576 44.9834 108.836 45.0901C109.103 45.1901 109.329 45.3534 109.516 45.5801C109.709 45.8001 109.806 46.1001 109.806 46.4801C109.806 46.9534 109.619 47.3368 109.246 47.6301C108.879 47.9234 108.383 48.0701 107.756 48.0701C107.036 48.0701 106.459 47.9101 106.026 47.5901C105.593 47.2634 105.329 46.8001 105.236 46.2001H106.586C106.619 46.4734 106.739 46.6901 106.946 46.8501C107.153 47.0034 107.423 47.0801 107.756 47.0801C107.996 47.0801 108.179 47.0234 108.306 46.9101C108.433 46.7901 108.496 46.6368 108.496 46.4501C108.496 46.2901 108.439 46.1601 108.326 46.0601C108.219 45.9601 108.083 45.8834 107.916 45.8301C107.756 45.7768 107.526 45.7134 107.226 45.6401C106.813 45.5468 106.476 45.4534 106.216 45.3601C105.963 45.2601 105.743 45.1034 105.556 44.8901C105.376 44.6768 105.286 44.3834 105.286 44.0101C105.286 43.5301 105.469 43.1401 105.836 42.8401C106.203 42.5401 106.709 42.3901 107.356 42.3901Z" fill="#1E2538"/>
<path d="M116.116 46.7901V48.0001H115.376C114.756 48.0001 114.279 47.8501 113.946 47.5501C113.619 47.2501 113.456 46.7501 113.456 46.0501V43.6501H112.686V42.4601H113.456V41.0901H114.866V42.4601H116.106V43.6501H114.866V46.0701C114.866 46.3368 114.919 46.5234 115.026 46.6301C115.133 46.7368 115.313 46.7901 115.566 46.7901H116.116Z" fill="#1E2538"/>
<path d="M124.641 45.0201C124.641 45.1601 124.624 45.3201 124.591 45.5001H120.531C120.551 45.9934 120.684 46.3568 120.931 46.5901C121.177 46.8234 121.484 46.9401 121.851 46.9401C122.177 46.9401 122.447 46.8601 122.661 46.7001C122.881 46.5401 123.021 46.3234 123.081 46.0501H124.571C124.497 46.4368 124.341 46.7834 124.101 47.0901C123.861 47.3968 123.551 47.6368 123.171 47.8101C122.797 47.9834 122.381 48.0701 121.921 48.0701C121.381 48.0701 120.901 47.9568 120.481 47.7301C120.061 47.4968 119.734 47.1668 119.501 46.7401C119.267 46.3134 119.151 45.8101 119.151 45.2301C119.151 44.6501 119.267 44.1468 119.501 43.7201C119.734 43.2868 120.061 42.9568 120.481 42.7301C120.901 42.5034 121.381 42.3901 121.921 42.3901C122.467 42.3901 122.944 42.5034 123.351 42.7301C123.764 42.9568 124.081 43.2701 124.301 43.6701C124.527 44.0634 124.641 44.5134 124.641 45.0201ZM123.221 44.8801C123.241 44.4268 123.121 44.0834 122.861 43.8501C122.607 43.6168 122.294 43.5001 121.921 43.5001C121.541 43.5001 121.221 43.6168 120.961 43.8501C120.701 44.0834 120.557 44.4268 120.531 44.8801H123.221Z" fill="#1E2538"/>
<path d="M134.992 42.3801C135.665 42.3801 136.195 42.5901 136.582 43.0101C136.975 43.4234 137.172 44.0134 137.172 44.7801V48.0001H135.772V44.9401C135.772 44.5134 135.662 44.1868 135.442 43.9601C135.228 43.7268 134.932 43.6101 134.552 43.6101C134.158 43.6101 133.845 43.7334 133.612 43.9801C133.378 44.2268 133.262 44.5868 133.262 45.0601V48.0001H131.862V44.9401C131.862 44.5134 131.752 44.1868 131.532 43.9601C131.318 43.7268 131.022 43.6101 130.642 43.6101C130.248 43.6101 129.935 43.7334 129.702 43.9801C129.468 44.2268 129.352 44.5868 129.352 45.0601V48.0001H127.942V42.4601H129.352V43.5101C129.498 43.1501 129.728 42.8734 130.042 42.6801C130.362 42.4801 130.732 42.3801 131.152 42.3801C131.598 42.3801 131.985 42.4868 132.312 42.7001C132.645 42.9134 132.895 43.2201 133.062 43.6201C133.235 43.2401 133.492 42.9401 133.832 42.7201C134.178 42.4934 134.565 42.3801 134.992 42.3801Z" fill="#1E2538"/>
<path d="M20.7635 30.9998H15.3115V16.4708H8.43848V11.5698H27.6075V16.4708H20.7635V30.9998Z" fill="#007AFF"/>
<path d="M37.0733 31.2898C32.1143 31.2898 28.6343 29.1728 28.6343 23.6918C28.6343 18.9358 32.0853 16.0938 36.9573 16.0938C42.0033 16.0938 45.2223 18.6168 45.2223 23.3148C45.2223 23.8078 45.1933 24.1848 45.1353 24.7068H33.6803C33.7673 26.4758 34.5503 26.9688 36.8703 26.9688C39.0743 26.9688 39.6543 26.5918 39.6543 25.7218V25.4028H45.1063V25.7508C45.1063 28.9988 42.0033 31.2898 37.0733 31.2898ZM36.8413 20.2698C34.8403 20.2698 33.9993 20.7048 33.7673 21.9518H39.9443C39.7413 20.7048 38.8713 20.2698 36.8413 20.2698Z" fill="#007AFF"/>
<path d="M52.1331 30.9998H46.6811V16.3838H51.7851V20.2118H52.0751C52.4811 17.8048 53.9891 16.0938 56.8891 16.0938C60.1081 16.0938 61.3841 18.2108 61.3841 21.1398V24.0398H55.9321V22.3288C55.9321 21.1108 55.4681 20.6758 54.0471 20.6758C52.5681 20.6758 52.1331 21.1108 52.1331 22.2708V30.9998Z" fill="#007AFF"/>
<path d="M67.9925 30.9998H62.5405V16.3838H67.6445V20.8208H67.9345C68.2535 18.3848 69.5875 16.0938 73.2705 16.0938C76.7215 16.0938 78.3745 18.1818 78.6645 20.8208H78.9545C79.2735 18.3848 80.6655 16.0938 84.4645 16.0938C88.2055 16.0938 89.9745 18.4718 89.9745 21.6328V30.9998H84.5225V23.6338C84.5225 21.6038 83.9425 20.9658 81.6805 20.9658C79.4475 20.9658 78.9835 21.5748 78.9835 23.4598V30.9998H73.5315V23.6338C73.5315 21.6038 72.9515 20.9658 70.6895 20.9658C68.4565 20.9658 67.9925 21.5748 67.9925 23.4598V30.9998Z" fill="#007AFF"/>
<path d="M97.0491 15.0498H91.5971V11.5698H97.0491V15.0498ZM97.0491 30.9998H91.5971V16.3838H97.0491V30.9998Z" fill="#007AFF"/>
<path d="M104.242 30.9998H98.7905V16.3838H103.894V20.8208H104.184C104.503 18.3848 106.098 16.0938 110.013 16.0938C113.957 16.0938 115.813 18.4718 115.813 21.6328V30.9998H110.361V23.6338C110.361 21.6038 109.607 20.9658 107.229 20.9658C104.822 20.9658 104.242 21.5748 104.242 23.4598V30.9998Z" fill="#007AFF"/>
<path d="M122.152 31.2898C118.846 31.2898 116.99 29.7818 116.99 27.2878C116.99 25.2288 118.411 23.7498 121.717 23.4308L127.662 22.8508V22.5608C127.662 21.0818 127.024 20.8498 125.081 20.8498C123.283 20.8498 122.732 21.1978 122.732 22.4158V22.5318H117.28V22.4738C117.28 18.5878 120.528 16.0938 125.487 16.0938C130.591 16.0938 133.056 18.5878 133.056 22.6768V30.9998H127.952V27.9258H127.662C127.111 29.9848 125.313 31.2898 122.152 31.2898ZM122.471 26.9398C122.471 27.4038 122.935 27.4908 123.776 27.4908C126.415 27.4908 127.488 27.1718 127.633 25.8668L123.167 26.3888C122.674 26.4468 122.471 26.6208 122.471 26.9398Z" fill="#007AFF"/>
<path d="M140.124 30.9998H134.672V11.5698H140.124V30.9998Z" fill="#007AFF"/>
</svg>
